<svg width="139" height="43" viewBox="0 0 139 43" fill="none" xmlns="http://www.w3.org/2000/svg">
<g id="Group 24687">
<rect id="Rectangle 2728" x="0.5" y="0.5" width="138" height="42" rx="21" fill="white" stroke="#ADA9AD"/>
<path id="AppGallery" d="M52.0775 24.591L50.3341 19.7191L48.5989 24.591H52.0775ZM46 28.2057L49.614 18.4116H51.0623L54.6764 28.2057H53.3418L52.4782 25.6914H48.2144L47.3509 28.2057H46ZM57.1317 27.1053V31H55.965V20.8587H57.1317V21.9675C57.3781 21.5307 57.6867 21.2087 58.0603 20.9987C58.4393 20.7831 58.886 20.6767 59.403 20.6767C60.2666 20.6767 60.9677 21.0323 61.5065 21.7435C62.0506 22.4491 62.3213 23.3814 62.3213 24.5406C62.3213 25.6942 62.0506 26.6237 61.5065 27.3377C60.9677 28.0433 60.2666 28.3961 59.403 28.3961C58.886 28.3961 58.4393 28.2925 58.0603 28.0825C57.6867 27.8669 57.3781 27.5393 57.1317 27.1053ZM61.1058 24.5406C61.1058 23.653 60.9271 22.9558 60.5698 22.4491C60.2233 21.9423 59.7414 21.6875 59.1215 21.6875C58.5043 21.6875 58.0143 21.9423 57.6569 22.4491C57.305 22.9558 57.129 23.653 57.129 24.5406C57.129 25.4282 57.305 26.1253 57.6569 26.6321C58.0143 27.1333 58.5015 27.3853 59.1215 27.3853C59.7387 27.3853 60.2233 27.1333 60.5698 26.6321C60.9271 26.1253 61.1058 25.4282 61.1058 24.5406ZM65.3858 27.1053V31H64.2109V20.8587H65.3858V21.9675C65.6321 21.5307 65.938 21.2087 66.3062 20.9987C66.6852 20.7831 67.1346 20.6767 67.6571 20.6767C68.5152 20.6767 69.2137 21.0323 69.7524 21.7435C70.2965 22.4491 70.5672 23.3814 70.5672 24.5406C70.5672 25.6942 70.2965 26.6237 69.7524 27.3377C69.2137 28.0433 68.5152 28.3961 67.6571 28.3961C67.1346 28.3961 66.6852 28.2925 66.3062 28.0825C65.938 27.8669 65.6294 27.5393 65.3858 27.1053ZM69.3517 24.5406C69.3517 23.653 69.1731 22.9558 68.8157 22.4491C68.4692 21.9423 67.9873 21.6875 67.3674 21.6875C66.7502 21.6875 66.2602 21.9423 65.9028 22.4491C65.5563 22.9558 65.3831 23.653 65.3831 24.5406C65.3831 25.4282 65.5563 26.1253 65.9028 26.6321C66.2602 27.1333 66.7475 27.3853 67.3674 27.3853C67.9846 27.3853 68.4692 27.1333 68.8157 26.6321C69.1731 26.1253 69.3517 25.4282 69.3517 24.5406ZM78.9648 26.8085V24.1794H76.8776V23.0874H80.2371V27.2985C79.7417 27.6625 79.1949 27.9369 78.5966 28.1245C78.0037 28.3065 77.3703 28.3961 76.6935 28.3961C75.21 28.3961 74.0513 27.9481 73.2148 27.0549C72.3837 26.1617 71.9668 24.9158 71.9668 23.317C71.9668 21.7183 72.3837 20.4723 73.2148 19.5792C74.0513 18.6804 75.2127 18.2296 76.6935 18.2296C77.3107 18.2296 77.8955 18.3108 78.445 18.4704C79.0054 18.6244 79.5197 18.8568 79.9881 19.1648V20.5787C79.5143 20.1587 79.0108 19.8451 78.4775 19.6351C77.9442 19.4252 77.3838 19.3216 76.7991 19.3216C75.6431 19.3216 74.7714 19.6548 74.184 20.3211C73.6074 20.9931 73.3204 21.9927 73.3204 23.3142C73.3204 24.6358 73.6074 25.6326 74.184 26.2989C74.7714 26.9653 75.6431 27.2985 76.7991 27.2985C77.2512 27.2985 77.6572 27.2593 78.0146 27.1837C78.3665 27.1053 78.6832 26.9793 78.9648 26.8085ZM86.875 24.507H85.7164C84.7716 24.507 84.1192 24.619 83.7564 24.8458C83.3936 25.067 83.2123 25.4478 83.2123 25.9882C83.2123 26.4193 83.3476 26.7609 83.621 27.0129C83.8918 27.2621 84.2626 27.3853 84.7337 27.3853C85.3834 27.3853 85.9032 27.1473 86.293 26.6741C86.6828 26.2009 86.8777 25.5682 86.8777 24.7786V24.507H86.875ZM88.0418 24.0114V28.2057H86.875V27.0885C86.6097 27.5365 86.2767 27.8669 85.8842 28.0825C85.4836 28.2925 84.9963 28.3961 84.4196 28.3961C83.6941 28.3961 83.1148 28.1861 82.6844 27.7661C82.2566 27.3405 82.0455 26.7721 82.0455 26.061C82.0455 25.2406 82.3108 24.6162 82.8441 24.1906C83.3828 23.7706 84.1814 23.5606 85.2426 23.5606H86.875V23.4458C86.875 22.8886 86.6991 22.4575 86.3471 22.1551C85.9952 21.8527 85.4998 21.7015 84.8609 21.7015C84.4548 21.7015 84.0623 21.7519 83.6779 21.8499C83.2935 21.9479 82.9226 22.1019 82.5653 22.3035V21.1863C82.993 21.0155 83.4072 20.8895 83.8132 20.8055C84.2139 20.7159 84.601 20.6739 84.98 20.6739C86.0087 20.6739 86.7776 20.9483 87.2838 21.4999C87.79 22.0571 88.0418 22.8914 88.0418 24.0114ZM90.4484 28.2057V18H91.6152V28.2057H90.4484ZM94.057 28.2057V18H95.2238V28.2057H94.057ZM103.708 24.227V24.8234H98.3424C98.3912 25.6494 98.6294 26.2849 99.0625 26.7245C99.4984 27.1557 100.105 27.3685 100.879 27.3685C101.326 27.3685 101.759 27.3125 102.176 27.2033C102.603 27.0885 103.02 26.9177 103.432 26.6909V27.8333C103.015 28.0153 102.587 28.1553 102.143 28.2561C101.707 28.3485 101.261 28.3961 100.809 28.3961C99.677 28.3961 98.781 28.0545 98.1123 27.3713C97.4518 26.6937 97.1215 25.7726 97.1215 24.6078C97.1215 23.401 97.4355 22.4463 98.0663 21.7463C98.6944 21.0351 99.5444 20.6795 100.608 20.6795C101.564 20.6795 102.317 20.9987 102.871 21.6399C103.429 22.2727 103.708 23.135 103.708 24.227ZM98.3749 23.8798H102.541C102.53 23.219 102.349 22.6899 101.997 22.2923C101.651 21.9003 101.19 21.7043 100.614 21.7043C99.964 21.7043 99.4415 21.8947 99.0463 22.2755C98.6565 22.6563 98.4345 23.191 98.3749 23.8798ZM109.691 20.7439L109.699 21.9843C109.566 21.9059 109.423 21.8499 109.266 21.8107C109.109 21.7715 108.944 21.7519 108.762 21.7519C108.102 21.7519 107.593 21.9759 107.235 22.4211C106.883 22.8635 106.707 23.499 106.707 24.3306V28.2029H105.541V20.8587H106.707V22.0011C106.954 21.5531 107.273 21.2227 107.669 21.0071C108.064 20.7859 108.54 20.6767 109.101 20.6767C109.182 20.6767 109.271 20.6851 109.371 20.7019C109.466 20.7075 109.574 20.7215 109.691 20.7439ZM117 20.8587L113.881 28.8833C113.551 29.7596 113.229 30.3336 112.915 30.6024C112.601 30.8684 112.181 31 111.659 31H110.722V29.992H111.41C111.729 29.992 111.981 29.9108 112.162 29.7512C112.338 29.5972 112.533 29.2249 112.747 28.6341L112.964 28.0881L110.083 20.8587H111.323L113.546 26.5985L115.76 20.8587H117Z" fill="#010202"/>
<path id="EXPLORE_IT_ON" d="M46 15.9065V11.0855H49.095V11.6303H46.657V13.0593H48.9918V13.6122H46.657V15.3563H49.1601V15.9092H46V15.9065ZM51.5356 13.3344L50.0126 11.0855H50.7266L51.9456 12.8777L53.1646 11.0855H53.8786L52.3067 13.3985L53.9818 15.9065H53.2677L51.8967 13.8552L50.5013 15.9065H49.7873L51.5356 13.3344ZM56.3464 11.6223H55.5129V13.4306H56.3464C56.6559 13.4306 56.8975 13.3531 57.0686 13.2009C57.2342 13.0433 57.3183 12.8162 57.3183 12.5224C57.3183 12.2393 57.2342 12.0176 57.0686 11.86C56.8975 11.7025 56.6559 11.6223 56.3464 11.6223ZM54.8559 15.9065V11.0855H56.3464C56.8975 11.0855 57.3129 11.2057 57.598 11.4487C57.8749 11.6971 58.0161 12.0523 58.0161 12.5224C58.0161 13.0005 57.8776 13.3611 57.598 13.6042C57.3156 13.8472 56.8975 13.9674 56.3464 13.9674H55.5129V15.9092H54.8559V15.9065ZM58.9065 15.9065V11.0855H59.5717V15.3536H61.9608V15.9065H58.9065ZM64.4069 11.5288C63.9264 11.5288 63.5409 11.7051 63.2531 12.0577C62.9762 12.4103 62.835 12.891 62.835 13.5027C62.835 14.1063 62.9734 14.5897 63.2531 14.9476C63.5409 15.3002 63.9264 15.4765 64.4069 15.4765C64.8874 15.4765 65.2675 15.3002 65.5444 14.9476C65.8268 14.5897 65.9707 14.109 65.9707 13.5027C65.9707 12.8937 65.8295 12.4103 65.5444 12.0577C65.2675 11.7025 64.8874 11.5288 64.4069 11.5288ZM64.4069 11C65.0911 11 65.6395 11.227 66.0521 11.6784C66.4648 12.1298 66.6684 12.7388 66.6684 13.5C66.6684 14.2639 66.4621 14.8702 66.0521 15.3216C65.6395 15.773 65.0911 16 64.4069 16C63.7173 16 63.1635 15.773 62.7454 15.3216C62.3327 14.8702 62.1291 14.2612 62.1291 13.5C62.1291 12.7361 62.3355 12.1298 62.7454 11.6784C63.1635 11.2244 63.7173 11 64.4069 11ZM70.0294 13.6416C70.1733 13.6896 70.3118 13.7911 70.4475 13.9487C70.5806 14.101 70.7163 14.3146 70.8575 14.5871L71.5308 15.9038H70.8167L70.1923 14.6645C70.0267 14.344 69.8693 14.1303 69.7199 14.0262C69.5652 13.922 69.3561 13.8686 69.0955 13.8686H68.3734V15.9038H67.7082V11.0855H69.2068C69.7688 11.0855 70.1869 11.2003 70.4665 11.4327C70.738 11.6597 70.8765 12.0069 70.8765 12.4744C70.8765 12.7788 70.8032 13.0326 70.6593 13.2329C70.51 13.4306 70.3036 13.5694 70.0294 13.6416ZM69.2041 11.6223H68.3706V13.3344H69.2041C69.5245 13.3344 69.7661 13.2596 69.9263 13.1127C70.0919 12.9658 70.176 12.7521 70.176 12.4744C70.176 12.1912 70.0919 11.9776 69.9263 11.836C69.7661 11.6944 69.5245 11.6223 69.2041 11.6223ZM72.3805 15.9065V11.0855H75.4755V11.6303H73.0457V13.0593H75.3805V13.6122H73.0457V15.3563H75.5406V15.9092H72.3805V15.9065ZM78.7632 15.9065V11.0855H79.4284V15.9065H78.7632ZM80.0718 11.6303V11.0855H84.2174V11.6303H82.4772V15.9065H81.812V11.6303H80.0718ZM88.982 11.5288C88.5015 11.5288 88.1187 11.7051 87.8364 12.0577C87.554 12.4103 87.4101 12.891 87.4101 13.5027C87.4101 14.1063 87.5513 14.5897 87.8364 14.9476C88.1187 15.3002 88.5015 15.4765 88.982 15.4765C89.4626 15.4765 89.8454 15.3002 90.1277 14.9476C90.4046 14.5897 90.5458 14.109 90.5458 13.5027C90.5458 12.8937 90.4073 12.4103 90.1277 12.0577C89.8454 11.7025 89.4626 11.5288 88.982 11.5288ZM88.982 11C89.6716 11 90.2227 11.227 90.6354 11.6784C91.0481 12.1298 91.2517 12.7388 91.2517 13.5C91.2517 14.2639 91.0453 14.8702 90.6354 15.3216C90.2255 15.773 89.6716 16 88.982 16C88.2925 16 87.7413 15.773 87.3287 15.3216C86.916 14.8702 86.7124 14.2612 86.7124 13.5C86.7124 12.7361 86.9187 12.1298 87.3287 11.6784C87.7413 11.2244 88.2925 11 88.982 11ZM92.286 15.9065V11.0855H93.1765L95.3512 15.1186V11.0855H96V15.9065H95.1014L92.9268 11.8734V15.9065H92.286Z" fill="#010202"/>
<path id="Path_5" d="M37.6563 11H29.3514C25.4341 11 24 12.5014 24 16.6249V25.3669C24 29.4904 25.4341 31 29.3514 31H37.6563C41.5659 31 43 29.4904 43 25.3669V16.6249C43 12.5014 41.5736 11 37.6563 11Z" fill="#010202"/>
<path id="Path_6" fill-rule="evenodd" clip-rule="evenodd" d="M32.0809 22.4322L31.8472 22.9527H31.3273L32.4353 20.4293H32.8843L33.9923 22.9527H33.4567L33.2309 22.4322H32.0809ZM32.2647 21.9749H33.0392L32.6506 21.0733L32.2647 21.9749ZM40.488 20.4293H41V22.9527H40.488V20.4293ZM38.4794 22.4953H39.8841V22.9527H37.9753V20.4293H39.829V20.8946H38.4794V21.4071H39.4115V21.8724H38.4794V22.4953ZM37.0275 20.4293H37.5631L36.6862 22.9606H36.2529L35.6779 21.2994L35.1029 22.9606H34.6828L33.798 20.4293H34.3494L34.9086 22.1694L35.4758 20.4293H35.8959L36.4709 22.1694L37.0275 20.4293ZM30.5528 20.4293H31.0648V21.8592C31.0648 22.5821 30.6683 23 29.9699 23C29.2872 23 28.8908 22.5873 28.8908 21.875V20.432H29.4028V21.8619C29.4028 22.2877 29.6049 22.5137 29.9778 22.5137C30.3506 22.5137 30.5528 22.2877 30.5528 21.8776V20.4293ZM27.6673 20.4293H28.1792V22.9606H27.6673V21.9276H26.512V22.9606H26V20.4293H26.512V21.4466H27.6673V20.4293ZM33.4987 17.2147C31.7212 17.2147 30.2876 15.7716 30.2876 14H30.7366C30.7366 15.5219 31.9785 16.7573 33.4987 16.7573C35.0189 16.7573 36.2608 15.5219 36.2608 14H36.7098C36.7098 15.769 35.2683 17.2147 33.4987 17.2147Z" fill="white"/>
</g>
</svg>
